# xmcd CD database file
#
# Track frame offsets:
#	150
#	46390
#	79725
#	180275
#	201522
#	250582
#	297977
#
# Disc length: 4164 seconds
#
# Revision: 0
# Processed by: cddbd v1.5.2PL0 Copyright (c) Steve Scherf et al.
# Submitted via: CDex 1.51
#
DISCID=5b104207
DTITLE=Kunnakkudi Vaidhyanathan - Raghuvamsa Sudha
DYEAR=2003
DGENRE=Indian/Carnatic/Instrumental
TTITLE0=Raghunayaka
TTITLE1=Sadinchane
TTITLE2=Samajavara Gamana
TTITLE3=Enta Vedu
TTITLE4=Meevalla
TTITLE5=Raghuvamsa Sudha
TTITLE6=Eppavaruvaro
EXTD=YEAR: 2003
EXTT0=
EXTT1=
EXTT2=
EXTT3=
EXTT4=
EXTT5=
EXTT6=
PLAYORDER=
